<mxfile host="Electron" agent="Mozilla/5.0 (Windows NT 10.0; Win64; x64) AppleWebKit/537.36 (KHTML, like Gecko) draw.io/28.0.4 Chrome/138.0.7204.97 Electron/37.2.1 Safari/537.36" version="28.0.4">
  <diagram name="Page-1" id="wgz6-esirIwSKb2-HDct">
    <mxGraphModel dx="793" dy="1929" grid="1" gridSize="10" guides="1" tooltips="1" connect="1" arrows="1" fold="1" page="1" pageScale="1" pageWidth="850" pageHeight="1100" math="0" shadow="0">
      <root>
        <mxCell id="0" />
        <mxCell id="1" parent="0" />
        <mxCell id="rUQzDFR05NfKmJ5MZdro-1" value="&lt;b&gt;&lt;font style=&quot;font-size: 31px;&quot;&gt;Data Integration Model&lt;/font&gt;&lt;/b&gt;" style="text;html=1;align=center;verticalAlign=middle;resizable=0;points=[];autosize=1;strokeColor=none;fillColor=none;" parent="1" vertex="1">
          <mxGeometry x="30" y="110" width="360" height="50" as="geometry" />
        </mxCell>
        <mxCell id="rUQzDFR05NfKmJ5MZdro-39" value="" style="group" parent="1" vertex="1" connectable="0">
          <mxGeometry x="260" y="260" width="980" height="370" as="geometry" />
        </mxCell>
        <mxCell id="rUQzDFR05NfKmJ5MZdro-2" value="&lt;font style=&quot;font-size: 20px;&quot;&gt;crm_cust_info&lt;/font&gt;" style="swimlane;fontStyle=0;childLayout=stackLayout;horizontal=1;startSize=30;horizontalStack=0;resizeParent=1;resizeParentMax=0;resizeLast=0;collapsible=1;marginBottom=0;whiteSpace=wrap;html=1;rounded=1;fillColor=#dae8fc;strokeColor=#6c8ebf;fontSize=26;container=0;" parent="rUQzDFR05NfKmJ5MZdro-39" vertex="1">
          <mxGeometry x="265" y="50" width="160" height="50" as="geometry" />
        </mxCell>
        <mxCell id="H86CNsFg8huP8Uwna9h--6" value="&lt;b&gt;Customer&lt;/b&gt;" style="text;html=1;strokeColor=#82b366;fillColor=#d5e8d4;align=center;verticalAlign=middle;whiteSpace=wrap;overflow=hidden;" vertex="1" parent="rUQzDFR05NfKmJ5MZdro-2">
          <mxGeometry y="30" width="160" height="20" as="geometry" />
        </mxCell>
        <mxCell id="rUQzDFR05NfKmJ5MZdro-6" value="Customer_info" style="text;html=1;align=center;verticalAlign=middle;resizable=0;points=[];autosize=1;strokeColor=none;fillColor=none;container=0;" parent="rUQzDFR05NfKmJ5MZdro-39" vertex="1">
          <mxGeometry x="295" y="20" width="100" height="30" as="geometry" />
        </mxCell>
        <mxCell id="rUQzDFR05NfKmJ5MZdro-7" value="&lt;font style=&quot;font-size: 20px;&quot;&gt;crm_prd_info&lt;/font&gt;" style="swimlane;fontStyle=0;childLayout=stackLayout;horizontal=1;startSize=30;horizontalStack=0;resizeParent=1;resizeParentMax=0;resizeLast=0;collapsible=1;marginBottom=0;whiteSpace=wrap;html=1;rounded=1;fillColor=#dae8fc;strokeColor=#6c8ebf;fontSize=26;container=0;" parent="rUQzDFR05NfKmJ5MZdro-39" vertex="1">
          <mxGeometry x="250" y="230" width="190" height="50" as="geometry" />
        </mxCell>
        <mxCell id="H86CNsFg8huP8Uwna9h--2" value="&lt;b&gt;Product&lt;/b&gt;" style="text;html=1;strokeColor=#82b366;fillColor=#d5e8d4;align=center;verticalAlign=middle;whiteSpace=wrap;overflow=hidden;" vertex="1" parent="rUQzDFR05NfKmJ5MZdro-7">
          <mxGeometry y="30" width="190" height="20" as="geometry" />
        </mxCell>
        <mxCell id="rUQzDFR05NfKmJ5MZdro-9" value="Current&amp;nbsp; History Product&lt;span style=&quot;background-color: transparent; color: light-dark(rgb(0, 0, 0), rgb(255, 255, 255));&quot;&gt;&amp;nbsp;Info&lt;/span&gt;" style="text;html=1;align=center;verticalAlign=middle;resizable=0;points=[];autosize=1;strokeColor=none;fillColor=none;container=0;" parent="rUQzDFR05NfKmJ5MZdro-39" vertex="1">
          <mxGeometry x="255" y="200" width="180" height="30" as="geometry" />
        </mxCell>
        <mxCell id="rUQzDFR05NfKmJ5MZdro-10" value="&lt;font style=&quot;font-size: 20px;&quot;&gt;crm_sales_details&lt;/font&gt;" style="swimlane;fontStyle=0;childLayout=stackLayout;horizontal=1;startSize=30;horizontalStack=0;resizeParent=1;resizeParentMax=0;resizeLast=0;collapsible=1;marginBottom=0;whiteSpace=wrap;html=1;rounded=1;fillColor=#dae8fc;strokeColor=#6c8ebf;fontSize=26;container=0;" parent="rUQzDFR05NfKmJ5MZdro-39" vertex="1">
          <mxGeometry x="5" y="155" width="180" height="50" as="geometry" />
        </mxCell>
        <mxCell id="H86CNsFg8huP8Uwna9h--13" value="&lt;b&gt;Sales&lt;/b&gt;" style="text;html=1;strokeColor=#82b366;fillColor=#d5e8d4;align=center;verticalAlign=middle;whiteSpace=wrap;overflow=hidden;" vertex="1" parent="rUQzDFR05NfKmJ5MZdro-10">
          <mxGeometry y="30" width="180" height="20" as="geometry" />
        </mxCell>
        <mxCell id="rUQzDFR05NfKmJ5MZdro-12" value="Transactional Records of Sales &lt;br&gt;&amp;amp; Orders&amp;nbsp;" style="text;html=1;align=center;verticalAlign=middle;resizable=0;points=[];autosize=1;strokeColor=none;fillColor=none;container=0;" parent="rUQzDFR05NfKmJ5MZdro-39" vertex="1">
          <mxGeometry y="120" width="190" height="40" as="geometry" />
        </mxCell>
        <mxCell id="rUQzDFR05NfKmJ5MZdro-13" style="edgeStyle=orthogonalEdgeStyle;rounded=0;orthogonalLoop=1;jettySize=auto;html=1;entryX=0;entryY=0.5;entryDx=0;entryDy=0;" parent="rUQzDFR05NfKmJ5MZdro-39" source="rUQzDFR05NfKmJ5MZdro-11" target="rUQzDFR05NfKmJ5MZdro-8" edge="1">
          <mxGeometry relative="1" as="geometry">
            <mxPoint x="230" y="280" as="targetPoint" />
            <Array as="points">
              <mxPoint x="220" y="200" />
              <mxPoint x="220" y="280" />
            </Array>
          </mxGeometry>
        </mxCell>
        <mxCell id="rUQzDFR05NfKmJ5MZdro-15" value="&lt;font style=&quot;font-size: 20px;&quot;&gt;erp_cust_az12&lt;/font&gt;" style="swimlane;fontStyle=0;childLayout=stackLayout;horizontal=1;startSize=30;horizontalStack=0;resizeParent=1;resizeParentMax=0;resizeLast=0;collapsible=1;marginBottom=0;whiteSpace=wrap;html=1;rounded=1;fillColor=#fff2cc;strokeColor=#d6b656;fontSize=26;container=0;" parent="rUQzDFR05NfKmJ5MZdro-39" vertex="1">
          <mxGeometry x="635" y="30" width="160" height="110" as="geometry" />
        </mxCell>
        <mxCell id="rUQzDFR05NfKmJ5MZdro-17" value="Extra Customer Info(Bday)" style="text;html=1;align=center;verticalAlign=middle;resizable=0;points=[];autosize=1;strokeColor=none;fillColor=none;container=0;" parent="rUQzDFR05NfKmJ5MZdro-39" vertex="1">
          <mxGeometry x="630" width="170" height="30" as="geometry" />
        </mxCell>
        <mxCell id="rUQzDFR05NfKmJ5MZdro-20" value="&lt;font style=&quot;font-size: 20px;&quot;&gt;erp_loc_a101&lt;/font&gt;" style="swimlane;fontStyle=0;childLayout=stackLayout;horizontal=1;startSize=30;horizontalStack=0;resizeParent=1;resizeParentMax=0;resizeLast=0;collapsible=1;marginBottom=0;whiteSpace=wrap;html=1;rounded=1;fillColor=#fff2cc;strokeColor=#d6b656;fontSize=26;container=0;" parent="rUQzDFR05NfKmJ5MZdro-39" vertex="1">
          <mxGeometry x="635" y="140" width="160" height="50" as="geometry" />
        </mxCell>
        <mxCell id="H86CNsFg8huP8Uwna9h--8" value="&lt;b&gt;Customer&lt;/b&gt;" style="text;html=1;strokeColor=#82b366;fillColor=#d5e8d4;align=center;verticalAlign=middle;whiteSpace=wrap;overflow=hidden;container=0;" vertex="1" parent="rUQzDFR05NfKmJ5MZdro-20">
          <mxGeometry y="30" width="160" height="20" as="geometry" />
        </mxCell>
        <mxCell id="rUQzDFR05NfKmJ5MZdro-22" value="Customer Location(Country)" style="text;html=1;align=center;verticalAlign=middle;resizable=0;points=[];autosize=1;strokeColor=none;fillColor=none;container=0;" parent="rUQzDFR05NfKmJ5MZdro-39" vertex="1">
          <mxGeometry x="630" y="110" width="170" height="30" as="geometry" />
        </mxCell>
        <mxCell id="rUQzDFR05NfKmJ5MZdro-23" style="edgeStyle=orthogonalEdgeStyle;rounded=0;orthogonalLoop=1;jettySize=auto;html=1;entryX=0;entryY=0.5;entryDx=0;entryDy=0;" parent="rUQzDFR05NfKmJ5MZdro-39" source="rUQzDFR05NfKmJ5MZdro-3" target="rUQzDFR05NfKmJ5MZdro-21" edge="1">
          <mxGeometry relative="1" as="geometry" />
        </mxCell>
        <mxCell id="rUQzDFR05NfKmJ5MZdro-24" value="&lt;font style=&quot;font-size: 20px;&quot;&gt;erp_px_cat_g1v2&lt;/font&gt;" style="swimlane;fontStyle=0;childLayout=stackLayout;horizontal=1;startSize=30;horizontalStack=0;resizeParent=1;resizeParentMax=0;resizeLast=0;collapsible=1;marginBottom=0;whiteSpace=wrap;html=1;rounded=1;fillColor=#fff2cc;strokeColor=#d6b656;fontSize=26;container=0;" parent="rUQzDFR05NfKmJ5MZdro-39" vertex="1">
          <mxGeometry x="630" y="285" width="160" height="70" as="geometry" />
        </mxCell>
        <mxCell id="rUQzDFR05NfKmJ5MZdro-26" style="edgeStyle=orthogonalEdgeStyle;rounded=0;orthogonalLoop=1;jettySize=auto;html=1;entryX=0;entryY=0.5;entryDx=0;entryDy=0;" parent="rUQzDFR05NfKmJ5MZdro-39" source="rUQzDFR05NfKmJ5MZdro-8" target="rUQzDFR05NfKmJ5MZdro-25" edge="1">
          <mxGeometry relative="1" as="geometry" />
        </mxCell>
        <mxCell id="rUQzDFR05NfKmJ5MZdro-27" value="Customer Product Info" style="text;html=1;align=center;verticalAlign=middle;resizable=0;points=[];autosize=1;strokeColor=none;fillColor=none;container=0;" parent="rUQzDFR05NfKmJ5MZdro-39" vertex="1">
          <mxGeometry x="640" y="255" width="140" height="30" as="geometry" />
        </mxCell>
        <mxCell id="rUQzDFR05NfKmJ5MZdro-37" style="edgeStyle=orthogonalEdgeStyle;rounded=0;orthogonalLoop=1;jettySize=auto;html=1;entryX=0;entryY=0.5;entryDx=0;entryDy=0;" parent="rUQzDFR05NfKmJ5MZdro-39" source="rUQzDFR05NfKmJ5MZdro-11" target="rUQzDFR05NfKmJ5MZdro-3" edge="1">
          <mxGeometry relative="1" as="geometry">
            <Array as="points">
              <mxPoint x="220" y="200" />
              <mxPoint x="220" y="100" />
            </Array>
          </mxGeometry>
        </mxCell>
        <mxCell id="rUQzDFR05NfKmJ5MZdro-38" style="edgeStyle=orthogonalEdgeStyle;rounded=0;orthogonalLoop=1;jettySize=auto;html=1;entryX=0;entryY=0.5;entryDx=0;entryDy=0;" parent="rUQzDFR05NfKmJ5MZdro-39" source="rUQzDFR05NfKmJ5MZdro-3" target="rUQzDFR05NfKmJ5MZdro-15" edge="1">
          <mxGeometry relative="1" as="geometry" />
        </mxCell>
        <mxCell id="rUQzDFR05NfKmJ5MZdro-29" value="" style="rounded=1;whiteSpace=wrap;html=1;dashed=1;fillColor=none;container=0;" parent="rUQzDFR05NfKmJ5MZdro-39" vertex="1">
          <mxGeometry x="470" y="-20" width="510" height="390" as="geometry" />
        </mxCell>
        <mxCell id="rUQzDFR05NfKmJ5MZdro-65" value="" style="rounded=1;whiteSpace=wrap;html=1;dashed=1;fillColor=none;container=0;" parent="rUQzDFR05NfKmJ5MZdro-39" vertex="1">
          <mxGeometry x="-70" y="-20" width="510" height="390" as="geometry" />
        </mxCell>
        <mxCell id="rUQzDFR05NfKmJ5MZdro-67" value="&lt;font style=&quot;font-size: 24px;&quot;&gt;&lt;b&gt;CRM&lt;/b&gt;&lt;/font&gt;" style="rounded=1;whiteSpace=wrap;html=1;fillColor=#dae8fc;strokeColor=#6c8ebf;container=0;" parent="rUQzDFR05NfKmJ5MZdro-39" vertex="1">
          <mxGeometry x="125" y="-50" width="120" height="50" as="geometry" />
        </mxCell>
        <mxCell id="rUQzDFR05NfKmJ5MZdro-3" value="cst_id&lt;div&gt;cst_key&lt;/div&gt;" style="text;strokeColor=none;fillColor=none;align=left;verticalAlign=middle;spacingLeft=4;spacingRight=4;overflow=hidden;points=[[0,0.5],[1,0.5]];portConstraint=eastwest;rotatable=0;whiteSpace=wrap;html=1;container=0;" parent="rUQzDFR05NfKmJ5MZdro-39" vertex="1">
          <mxGeometry x="265" y="80" width="160" height="40" as="geometry" />
        </mxCell>
        <mxCell id="rUQzDFR05NfKmJ5MZdro-8" value="prd_key" style="text;strokeColor=none;fillColor=none;align=left;verticalAlign=middle;spacingLeft=4;spacingRight=4;overflow=hidden;points=[[0,0.5],[1,0.5]];portConstraint=eastwest;rotatable=0;whiteSpace=wrap;html=1;container=0;" parent="rUQzDFR05NfKmJ5MZdro-39" vertex="1">
          <mxGeometry x="250" y="260" width="190" height="40" as="geometry" />
        </mxCell>
        <mxCell id="rUQzDFR05NfKmJ5MZdro-11" value="cst_id&lt;div&gt;prd_key&lt;/div&gt;" style="text;strokeColor=none;fillColor=none;align=left;verticalAlign=middle;spacingLeft=4;spacingRight=4;overflow=hidden;points=[[0,0.5],[1,0.5]];portConstraint=eastwest;rotatable=0;whiteSpace=wrap;html=1;container=0;" parent="rUQzDFR05NfKmJ5MZdro-39" vertex="1">
          <mxGeometry x="5" y="185" width="180" height="40" as="geometry" />
        </mxCell>
        <mxCell id="H86CNsFg8huP8Uwna9h--5" value="&lt;b&gt;Product&lt;/b&gt;" style="text;html=1;strokeColor=#82b366;fillColor=#d5e8d4;align=center;verticalAlign=middle;whiteSpace=wrap;overflow=hidden;container=0;" vertex="1" parent="rUQzDFR05NfKmJ5MZdro-39">
          <mxGeometry x="630" y="340" width="160" height="20" as="geometry" />
        </mxCell>
        <mxCell id="rUQzDFR05NfKmJ5MZdro-16" value="cid" style="text;strokeColor=none;fillColor=none;align=left;verticalAlign=middle;spacingLeft=4;spacingRight=4;overflow=hidden;points=[[0,0.5],[1,0.5]];portConstraint=eastwest;rotatable=0;whiteSpace=wrap;html=1;container=0;" parent="rUQzDFR05NfKmJ5MZdro-39" vertex="1">
          <mxGeometry x="635" y="60" width="160" height="40" as="geometry" />
        </mxCell>
        <mxCell id="H86CNsFg8huP8Uwna9h--7" value="&lt;b&gt;Customer&lt;/b&gt;" style="text;html=1;strokeColor=#82b366;fillColor=#d5e8d4;align=center;verticalAlign=middle;whiteSpace=wrap;overflow=hidden;container=0;" vertex="1" parent="rUQzDFR05NfKmJ5MZdro-39">
          <mxGeometry x="635" y="100" width="160" height="20" as="geometry" />
        </mxCell>
        <mxCell id="rUQzDFR05NfKmJ5MZdro-21" value="cid" style="text;strokeColor=none;fillColor=none;align=left;verticalAlign=middle;spacingLeft=4;spacingRight=4;overflow=hidden;points=[[0,0.5],[1,0.5]];portConstraint=eastwest;rotatable=0;whiteSpace=wrap;html=1;container=0;" parent="rUQzDFR05NfKmJ5MZdro-39" vertex="1">
          <mxGeometry x="635" y="170" width="160" height="40" as="geometry" />
        </mxCell>
        <mxCell id="rUQzDFR05NfKmJ5MZdro-25" value="id" style="text;strokeColor=none;fillColor=none;align=left;verticalAlign=middle;spacingLeft=4;spacingRight=4;overflow=hidden;points=[[0,0.5],[1,0.5]];portConstraint=eastwest;rotatable=0;whiteSpace=wrap;html=1;container=0;" parent="rUQzDFR05NfKmJ5MZdro-39" vertex="1">
          <mxGeometry x="630" y="315" width="160" height="40" as="geometry" />
        </mxCell>
        <mxCell id="rUQzDFR05NfKmJ5MZdro-68" value="&lt;font style=&quot;font-size: 24px;&quot;&gt;&lt;b&gt;ERP&lt;/b&gt;&lt;/font&gt;" style="rounded=1;whiteSpace=wrap;html=1;fillColor=#dae8fc;strokeColor=#6c8ebf;container=0;" parent="1" vertex="1">
          <mxGeometry x="910" y="210" width="120" height="50" as="geometry" />
        </mxCell>
      </root>
    </mxGraphModel>
  </diagram>
</mxfile>
